<?xml version="1.0" encoding="UTF-8"?> <svg xmlns="http://www.w3.org/2000/svg" width="63" height="31" viewBox="0 0 63 31" fill="none"> <path d="M14.5751 17.5993L22.3212 8.30832H14.3513L6.92726 17.8121V0H0V29.8598H6.92726V22.7851L8.79418 20.487L14.8371 29.8598H22.878L14.5751 17.5993Z" fill="white"></path> <path d="M41.7059 22.84L39.577 24.9471C39.3477 25.0726 38.9438 25.2146 38.3597 25.3674C37.7756 25.5203 37.3116 25.5967 36.9513 25.5967C36.0833 25.5967 35.4228 25.4657 34.9697 25.2037C34.5167 24.9416 34.2 24.5868 34.0254 24.1392C33.8343 23.6915 33.7306 23.1839 33.7197 22.6216C33.7088 22.0594 33.6978 21.3988 33.6978 20.6401V12.9922H40.1447V8.30853H33.6978V2.14551H26.7706V8.30853H23.932L19.9307 12.9922H26.7706V23.0692C26.7706 25.7059 27.4256 27.5673 28.7358 28.6536C30.0459 29.74 32.0438 30.2858 34.735 30.2858C35.936 30.2858 36.9568 30.2312 37.7865 30.1221C38.6162 30.0129 41.0891 29.0085 41.6404 28.8119L41.7059 22.84Z" fill="white"></path> <path d="M61.7007 19.2211C60.8327 18.2058 59.4844 17.4579 57.6721 16.983C56.8532 16.781 56.0399 16.6063 55.2265 16.4753C54.4131 16.3388 53.6544 16.2024 52.9502 16.0604C51.6728 15.793 50.8594 15.5255 50.5155 15.2525C50.1716 14.9796 49.9969 14.592 49.9969 14.0843C49.9969 13.5221 50.3791 13.0854 51.1378 12.7797C51.8966 12.474 52.8355 12.3211 53.9491 12.3211C55.292 12.3211 56.6185 12.5395 57.9286 12.9817C59.2388 13.4238 60.4069 13.997 61.4332 14.7012H62.0282V9.25326C61.1985 8.88206 60.0412 8.5327 58.5619 8.20517C57.0825 7.87764 55.5377 7.71387 53.9273 7.71387C50.5265 7.71387 47.8407 8.40168 45.8755 9.77731C43.9104 11.1529 42.9278 12.8779 42.9278 14.9468C42.9278 16.5572 43.4027 17.9055 44.3471 18.9864C45.2914 20.0672 46.7435 20.8642 48.7032 21.3773C49.4183 21.5684 50.2153 21.7322 51.0942 21.8686C51.9676 22.0051 52.6663 22.1252 53.174 22.2453C54.2494 22.4637 54.9754 22.6875 55.363 22.9277C55.7451 23.1624 55.9362 23.5445 55.9362 24.0686C55.9362 24.6581 55.6086 25.1003 54.959 25.4005C54.304 25.7007 53.2995 25.8536 51.9458 25.8536C50.9086 25.8536 49.9369 25.7499 49.0307 25.537C48.1246 25.3241 47.3112 25.073 46.5961 24.7782C45.7664 24.4452 45.1222 24.1341 44.6691 23.8448C44.216 23.5554 43.8175 23.2934 43.4682 23.0478H42.835V28.7304C43.7793 29.1671 45.0349 29.5601 46.5961 29.9204C48.1573 30.2807 49.8987 30.4554 51.8147 30.4554C55.2811 30.4554 58.016 29.7731 60.0085 28.4138C62.0009 27.0546 62.9999 25.2586 62.9999 23.0314C63.0054 21.5084 62.5686 20.2365 61.7007 19.2211Z" fill="white"></path> </svg> 